REM GENRE "Ambient"
REM DATE 2007
PERFORMER "Northbound"
TITLE "Split Horizon"
FILE "multifile-side-a.bin" BINARY
  TRACK 01 AUDIO
    TITLE "Dawn Receiver"
    PERFORMER "Northbound"
    INDEX 01 00:00:00
  TRACK 02 AUDIO
    TITLE "Signal Fire"
    PERFORMER "Northbound"
    INDEX 01 03:15:00
FILE "multifile-side-b.flac" WAVE
  TRACK 03 AUDIO
    TITLE "Night Transit"
    PERFORMER "Northbound"
    INDEX 01 00:00:00
  TRACK 04 AUDIO
    TITLE "Harbor Lights"
    PERFORMER "Northbound"
    INDEX 01 04:00:00
